<mxfile host="app.diagrams.net" modified="2024-04-24T13:29:58.583Z" agent="Mozilla/5.0 (Windows NT 10.0; Win64; x64) AppleWebKit/537.36 (KHTML, like Gecko) Chrome/124.0.0.0 Safari/537.36" etag="3Kp6_wMYHeDVFbT2PrMV" version="24.2.5" type="github">
  <diagram id="C5RBs43oDa-KdzZeNtuy" name="Page-1">
    <mxGraphModel dx="1221" dy="670" grid="1" gridSize="10" guides="1" tooltips="1" connect="1" arrows="1" fold="1" page="1" pageScale="1" pageWidth="827" pageHeight="1169" math="0" shadow="0">
      <root>
        <mxCell id="WIyWlLk6GJQsqaUBKTNV-0" />
        <mxCell id="WIyWlLk6GJQsqaUBKTNV-1" parent="WIyWlLk6GJQsqaUBKTNV-0" />
        <mxCell id="Zso72sIHREdCy7PMRY_Q-0" style="edgeStyle=orthogonalEdgeStyle;rounded=0;orthogonalLoop=1;jettySize=auto;html=1;exitX=0.5;exitY=1;exitDx=0;exitDy=0;exitPerimeter=0;entryX=0.5;entryY=0;entryDx=0;entryDy=0;" edge="1" parent="WIyWlLk6GJQsqaUBKTNV-1" source="Zso72sIHREdCy7PMRY_Q-1">
          <mxGeometry relative="1" as="geometry">
            <mxPoint x="328.5" y="80" as="targetPoint" />
          </mxGeometry>
        </mxCell>
        <mxCell id="Zso72sIHREdCy7PMRY_Q-1" value="开始" style="strokeWidth=2;html=1;shape=mxgraph.flowchart.terminator;whiteSpace=wrap;" vertex="1" parent="WIyWlLk6GJQsqaUBKTNV-1">
          <mxGeometry x="291" y="20" width="75" height="40" as="geometry" />
        </mxCell>
        <mxCell id="Zso72sIHREdCy7PMRY_Q-2" style="edgeStyle=orthogonalEdgeStyle;rounded=0;orthogonalLoop=1;jettySize=auto;html=1;" edge="1" parent="WIyWlLk6GJQsqaUBKTNV-1" target="Zso72sIHREdCy7PMRY_Q-4">
          <mxGeometry relative="1" as="geometry">
            <mxPoint x="328.5" y="110" as="sourcePoint" />
          </mxGeometry>
        </mxCell>
        <mxCell id="Zso72sIHREdCy7PMRY_Q-4" value="输入邮箱" style="shape=parallelogram;html=1;strokeWidth=2;perimeter=parallelogramPerimeter;whiteSpace=wrap;rounded=1;arcSize=12;size=0.23;" vertex="1" parent="WIyWlLk6GJQsqaUBKTNV-1">
          <mxGeometry x="275" y="140" width="107" height="30" as="geometry" />
        </mxCell>
        <mxCell id="Zso72sIHREdCy7PMRY_Q-5" style="edgeStyle=orthogonalEdgeStyle;rounded=0;orthogonalLoop=1;jettySize=auto;html=1;entryX=0.5;entryY=0;entryDx=0;entryDy=0;entryPerimeter=0;" edge="1" parent="WIyWlLk6GJQsqaUBKTNV-1" source="Zso72sIHREdCy7PMRY_Q-9">
          <mxGeometry relative="1" as="geometry">
            <mxPoint x="328.5050000000001" y="280" as="targetPoint" />
          </mxGeometry>
        </mxCell>
        <mxCell id="Zso72sIHREdCy7PMRY_Q-6" value="Y" style="edgeLabel;html=1;align=center;verticalAlign=middle;resizable=0;points=[];" vertex="1" connectable="0" parent="Zso72sIHREdCy7PMRY_Q-5">
          <mxGeometry x="-0.4222" relative="1" as="geometry">
            <mxPoint as="offset" />
          </mxGeometry>
        </mxCell>
        <mxCell id="Zso72sIHREdCy7PMRY_Q-25" style="edgeStyle=orthogonalEdgeStyle;rounded=0;orthogonalLoop=1;jettySize=auto;html=1;exitX=1;exitY=0.5;exitDx=0;exitDy=0;exitPerimeter=0;entryX=0.5;entryY=1;entryDx=0;entryDy=0;" edge="1" parent="WIyWlLk6GJQsqaUBKTNV-1" source="Zso72sIHREdCy7PMRY_Q-9" target="Zso72sIHREdCy7PMRY_Q-21">
          <mxGeometry relative="1" as="geometry" />
        </mxCell>
        <mxCell id="Zso72sIHREdCy7PMRY_Q-9" value="邮箱是否有效" style="strokeWidth=2;html=1;shape=mxgraph.flowchart.decision;whiteSpace=wrap;" vertex="1" parent="WIyWlLk6GJQsqaUBKTNV-1">
          <mxGeometry x="270.13" y="200" width="116.75" height="40" as="geometry" />
        </mxCell>
        <mxCell id="Zso72sIHREdCy7PMRY_Q-10" style="edgeStyle=orthogonalEdgeStyle;rounded=0;orthogonalLoop=1;jettySize=auto;html=1;entryX=0.5;entryY=0;entryDx=0;entryDy=0;entryPerimeter=0;" edge="1" parent="WIyWlLk6GJQsqaUBKTNV-1" source="Zso72sIHREdCy7PMRY_Q-4" target="Zso72sIHREdCy7PMRY_Q-9">
          <mxGeometry relative="1" as="geometry" />
        </mxCell>
        <mxCell id="Zso72sIHREdCy7PMRY_Q-15" style="edgeStyle=orthogonalEdgeStyle;rounded=0;orthogonalLoop=1;jettySize=auto;html=1;exitX=0.5;exitY=1;exitDx=0;exitDy=0;" edge="1" parent="WIyWlLk6GJQsqaUBKTNV-1" source="Zso72sIHREdCy7PMRY_Q-24" target="Zso72sIHREdCy7PMRY_Q-19">
          <mxGeometry relative="1" as="geometry">
            <mxPoint x="328.5050000000001" y="320" as="sourcePoint" />
          </mxGeometry>
        </mxCell>
        <mxCell id="Zso72sIHREdCy7PMRY_Q-16" value="Y" style="edgeLabel;html=1;align=center;verticalAlign=middle;resizable=0;points=[];" vertex="1" connectable="0" parent="Zso72sIHREdCy7PMRY_Q-15">
          <mxGeometry x="0.28" y="-1" relative="1" as="geometry">
            <mxPoint x="1" y="-6" as="offset" />
          </mxGeometry>
        </mxCell>
        <mxCell id="Zso72sIHREdCy7PMRY_Q-18" style="edgeStyle=orthogonalEdgeStyle;rounded=0;orthogonalLoop=1;jettySize=auto;html=1;exitX=0.5;exitY=1;exitDx=0;exitDy=0;" edge="1" parent="WIyWlLk6GJQsqaUBKTNV-1" source="Zso72sIHREdCy7PMRY_Q-19" target="Zso72sIHREdCy7PMRY_Q-22">
          <mxGeometry relative="1" as="geometry" />
        </mxCell>
        <mxCell id="Zso72sIHREdCy7PMRY_Q-19" value="保存评论" style="rounded=0;whiteSpace=wrap;html=1;" vertex="1" parent="WIyWlLk6GJQsqaUBKTNV-1">
          <mxGeometry x="260.01" y="350" width="137" height="30" as="geometry" />
        </mxCell>
        <mxCell id="Zso72sIHREdCy7PMRY_Q-20" style="edgeStyle=orthogonalEdgeStyle;rounded=0;orthogonalLoop=1;jettySize=auto;html=1;entryX=1;entryY=0.5;entryDx=0;entryDy=0;" edge="1" parent="WIyWlLk6GJQsqaUBKTNV-1" source="Zso72sIHREdCy7PMRY_Q-21" target="Zso72sIHREdCy7PMRY_Q-4">
          <mxGeometry relative="1" as="geometry">
            <Array as="points">
              <mxPoint x="479" y="155" />
            </Array>
          </mxGeometry>
        </mxCell>
        <mxCell id="Zso72sIHREdCy7PMRY_Q-21" value="提示标签已存在" style="rounded=0;whiteSpace=wrap;html=1;" vertex="1" parent="WIyWlLk6GJQsqaUBKTNV-1">
          <mxGeometry x="470" y="140" width="137" height="30" as="geometry" />
        </mxCell>
        <mxCell id="Zso72sIHREdCy7PMRY_Q-22" value="结束" style="strokeWidth=2;html=1;shape=mxgraph.flowchart.terminator;whiteSpace=wrap;" vertex="1" parent="WIyWlLk6GJQsqaUBKTNV-1">
          <mxGeometry x="291.01" y="414" width="75" height="40" as="geometry" />
        </mxCell>
        <mxCell id="Zso72sIHREdCy7PMRY_Q-23" value="输入用户名" style="shape=parallelogram;html=1;strokeWidth=2;perimeter=parallelogramPerimeter;whiteSpace=wrap;rounded=1;arcSize=12;size=0.23;" vertex="1" parent="WIyWlLk6GJQsqaUBKTNV-1">
          <mxGeometry x="275" y="80" width="107" height="30" as="geometry" />
        </mxCell>
        <mxCell id="Zso72sIHREdCy7PMRY_Q-24" value="输入评论内容" style="shape=parallelogram;html=1;strokeWidth=2;perimeter=parallelogramPerimeter;whiteSpace=wrap;rounded=1;arcSize=12;size=0.23;" vertex="1" parent="WIyWlLk6GJQsqaUBKTNV-1">
          <mxGeometry x="275" y="280" width="107" height="30" as="geometry" />
        </mxCell>
      </root>
    </mxGraphModel>
  </diagram>
</mxfile>
